<svg width="40" height="41" viewBox="0 0 40 41" fill="none" xmlns="http://www.w3.org/2000/svg">
<path fill-rule="evenodd" clip-rule="evenodd" d="M2.31574 33.6922L11.4367 34.516L10.1403 37.5733C9.17729 39.7244 11.1404 41.2714 12.7979 40.9601L37.9199 36.8959C39.3181 36.6488 40.3274 35.2208 39.9015 33.5457L30.1694 1.66373C29.5675 -0.285988 26.771 -0.551441 25.7524 1.02298L22.4837 8.41909L0.704529 29.5914C-0.814087 31.1292 0.306355 33.5183 2.31574 33.6922ZM12.446 39.0287C11.9738 39.0928 11.7515 38.7999 11.9645 38.3514L13.5202 34.6991L29.9471 36.1911L12.446 39.0287ZM37.3365 34.8913C37.8087 34.9737 38.1884 34.5252 37.9013 34.0583L23.28 11.6961L14.3072 32.8134L37.3365 34.8913ZM27.4099 2.15803C27.6507 1.79188 28.1415 1.87426 28.2804 2.26787L35.9753 27.486L24.1505 9.39853C24.7987 8.02549 27.4099 2.15803 27.4099 2.15803ZM20.5484 13.06L2.14906 30.9461C1.86201 31.2482 2.01942 31.6326 2.38982 31.7333L12.2423 32.6212L20.5484 13.06Z" fill="#03DAC4"/>
</svg>
