<svg width="678" height="346" viewBox="0 0 678 346" fill="none" xmlns="http://www.w3.org/2000/svg">
<path fill-rule="evenodd" clip-rule="evenodd" d="M21.5098 164.885H283.894C294.669 164.885 303.405 173.62 303.405 184.395V184.789C303.405 195.563 312.139 204.299 322.915 204.299H408.124C413.059 204.299 417.058 208.299 417.058 213.232C417.058 218.166 421.058 222.165 425.992 222.165H655.724C666.471 222.165 675.184 213.452 675.184 202.705V183.077C675.184 172.331 666.471 163.618 655.724 163.618H569.447C558.698 163.618 549.985 154.904 549.985 144.157V143.764C549.985 133.017 541.273 124.304 530.525 124.304H477.006V88.346C477.006 72.6642 464.293 59.9522 448.611 59.9522H426.57C424.138 59.9522 472.059 59.6135 431.335 59.4961C423.698 59.4732 417.536 53.2758 417.536 45.6386V45.3607C417.536 37.7289 423.706 31.5341 431.338 31.5031L539.879 31.0943C557.914 31.0228 559.255 3.8717 541.262 2.65596C540.62 2.61278 539.972 2.58984 539.318 2.58984H200.035C189.259 2.58984 180.523 11.324 180.523 22.101V105.96C180.523 116.734 171.789 125.47 161.014 125.47H21.5098C10.7355 125.47 2 134.205 2 144.98V145.374C2 156.149 10.7355 164.885 21.5098 164.885Z" stroke="#E1E4E5" stroke-width="4" stroke-linecap="round" stroke-linejoin="round"/>
<path fill-rule="evenodd" clip-rule="evenodd" d="M604.654 2H621.192C628.886 2 635.123 8.23792 635.123 15.9318V16.2124C635.123 23.9062 628.886 30.1442 621.192 30.1442H604.654C596.961 30.1442 590.723 23.9062 590.723 16.2124V15.9318C590.723 8.23792 596.961 2 604.654 2Z" stroke="#E1E4E5" stroke-width="4" stroke-linecap="round" stroke-linejoin="round"/>
<path fill-rule="evenodd" clip-rule="evenodd" d="M109.835 96.9718C109.835 94.5039 111.836 92.5015 114.305 92.5015C116.773 92.5015 118.774 94.5039 118.774 96.9718C118.774 99.4397 116.773 101.442 114.305 101.442C111.836 101.442 109.835 99.4397 109.835 96.9718Z" stroke="#E1E4E5" stroke-width="4" stroke-linecap="round" stroke-linejoin="round"/>
<path d="M149.168 108.105V88.1377" stroke="#E1E4E5" stroke-width="4" stroke-linecap="round" stroke-linejoin="round"/>
<path d="M159.151 98.1206H139.184" stroke="#E1E4E5" stroke-width="4" stroke-linecap="round" stroke-linejoin="round"/>
<path fill-rule="evenodd" clip-rule="evenodd" d="M65.5909 188.863H257.545C270.117 188.863 280.308 199.054 280.308 211.626V244.065C280.308 256.638 290.5 266.828 303.072 266.828H526.542C539.114 266.828 549.305 277.021 549.305 289.591C549.305 302.164 539.114 312.354 526.542 312.354H126.31C113.739 312.354 103.547 302.164 103.547 289.591V266.895C103.547 254.324 93.3559 244.132 80.7842 244.132H65.5909C53.0192 244.132 42.8278 233.94 42.8278 221.369V211.626C42.8278 199.054 53.0192 188.863 65.5909 188.863Z" stroke="#E1E4E5" stroke-width="4" stroke-linecap="round" stroke-linejoin="round"/>
<path d="M442.588 325.117H549.304" stroke="#E1E4E5" stroke-width="4" stroke-linecap="round" stroke-linejoin="round"/>
<path fill-rule="evenodd" clip-rule="evenodd" d="M267.985 279.061C267.985 279.061 263.013 300.123 259.889 315.812C257.614 327.237 254.723 343.056 272.806 343.056H328.412C336.158 343.056 413.658 342.922 418.164 342.922C422.233 342.922 421.154 334.515 415.784 334.515C410.414 334.515 356.739 330.448 347.355 330.448C337.971 330.448 332.804 321.995 335.387 309.021C337.082 300.509 339.693 276.924 339.693 276.924L267.985 279.061Z" fill="#F3FCFF"/>
<path fill-rule="evenodd" clip-rule="evenodd" d="M415.784 334.515C410.414 334.515 356.739 330.449 347.355 330.449C342.888 330.449 339.392 327.849 337.218 324.646C315.178 324.81 280.492 324.607 258.467 324.329C257.416 333.797 258.971 343.057 272.805 343.057H328.412C336.158 343.057 413.658 342.923 418.164 342.923C422.232 342.923 421.154 334.515 415.784 334.515" fill="#C4DCE9"/>
<path fill-rule="evenodd" clip-rule="evenodd" d="M336.833 300.002C338.263 289.837 339.693 276.924 339.693 276.924L267.985 279.061C267.985 279.061 265.681 288.822 263.225 300.002H336.833Z" fill="#C4DCE9"/>
<path fill-rule="evenodd" clip-rule="evenodd" d="M267.985 279.061C267.985 279.061 263.013 300.123 259.889 315.812C257.614 327.237 254.723 343.056 272.806 343.056H328.412C336.158 343.056 413.658 342.922 418.164 342.922C422.233 342.922 421.154 334.515 415.784 334.515C410.414 334.515 356.739 330.448 347.355 330.448C337.971 330.448 332.804 321.995 335.387 309.021C337.082 300.509 339.693 276.924 339.693 276.924L267.985 279.061Z" stroke="#2B3554" stroke-width="4" stroke-linecap="round" stroke-linejoin="round"/>
<path fill-rule="evenodd" clip-rule="evenodd" d="M278.833 338.751C260.75 338.751 263.642 322.932 265.917 311.506C268.194 300.069 271.452 285.784 273.051 278.878L267.985 279.061C267.985 279.061 263.013 300.124 259.889 315.812C257.615 327.237 254.723 343.056 272.806 343.056H328.412C336.158 343.056 413.658 342.922 418.164 342.922C420.222 342.922 420.961 340.771 420.496 338.644C404.209 338.808 341.24 338.829 334.439 338.751C326.694 338.662 303.872 338.751 278.833 338.751" fill="#797571"/>
<path fill-rule="evenodd" clip-rule="evenodd" d="M278.833 338.751C260.75 338.751 263.642 322.932 265.917 311.506C268.194 300.069 271.452 285.784 273.051 278.878L267.985 279.061C267.985 279.061 263.013 300.124 259.889 315.812C257.615 327.237 254.723 343.056 272.806 343.056H328.412C336.158 343.056 413.658 342.922 418.164 342.922C420.222 342.922 420.961 340.771 420.496 338.644C404.209 338.808 341.24 338.829 334.439 338.751C326.694 338.662 303.872 338.751 278.833 338.751Z" stroke="#2B3554" stroke-width="2.4" stroke-linecap="round" stroke-linejoin="round"/>
<path d="M339.693 338.719V343.056" stroke="#2B3554" stroke-width="2.4" stroke-linecap="round" stroke-linejoin="round"/>
<path fill-rule="evenodd" clip-rule="evenodd" d="M545.761 285.436H153.19C147.01 285.436 142 280.525 142 274.467V14.97C142 8.912 147.01 4 153.19 4H545.761C551.941 4 556.951 8.912 556.951 14.97V274.467C556.951 280.525 551.941 285.436 545.761 285.436" fill="#797571"/>
<path fill-rule="evenodd" clip-rule="evenodd" d="M545.761 285.436H153.19C147.01 285.436 142 280.525 142 274.467V14.97C142 8.912 147.01 4 153.19 4H545.761C551.941 4 556.951 8.912 556.951 14.97V274.467C556.951 280.525 551.941 285.436 545.761 285.436Z" stroke="#2B3554" stroke-width="4" stroke-linecap="round" stroke-linejoin="round"/>
<path fill-rule="evenodd" clip-rule="evenodd" d="M142.169 246.625V274.467C142.169 280.525 147.179 285.437 153.359 285.437H545.93C552.11 285.437 557.12 280.525 557.12 274.467V246.625H142.169Z" fill="#797571"/>
<path fill-rule="evenodd" clip-rule="evenodd" d="M142.169 246.625V274.467C142.169 280.525 147.179 285.437 153.359 285.437H545.93C552.11 285.437 557.12 280.525 557.12 274.467V246.625H142.169Z" stroke="#2B3554" stroke-width="4" stroke-linecap="round" stroke-linejoin="round"/>
<path fill-rule="evenodd" clip-rule="evenodd" d="M553.514 285.436H160.943C154.763 285.436 149.753 280.525 149.753 274.467V14.97C149.753 8.912 154.763 4 160.943 4H553.514C559.694 4 564.704 8.912 564.704 14.97V274.467C564.704 280.525 559.694 285.436 553.514 285.436" fill="white"/>
<path fill-rule="evenodd" clip-rule="evenodd" d="M553.514 285.436H160.943C154.763 285.436 149.753 280.525 149.753 274.467V14.97C149.753 8.912 154.763 4 160.943 4H553.514C559.694 4 564.704 8.912 564.704 14.97V274.467C564.704 280.525 559.694 285.436 553.514 285.436" fill="#ADC1D0"/>
<path fill-rule="evenodd" clip-rule="evenodd" d="M553.514 285.436H160.943C154.763 285.436 149.753 280.525 149.753 274.467V14.97C149.753 8.912 154.763 4 160.943 4H553.514C559.694 4 564.704 8.912 564.704 14.97V274.467C564.704 280.525 559.694 285.436 553.514 285.436" fill="#00E2FA"/>
<path fill-rule="evenodd" clip-rule="evenodd" d="M553.514 285.436H160.943C154.763 285.436 149.753 280.525 149.753 274.467V14.97C149.753 8.912 154.763 4 160.943 4H553.514C559.694 4 564.704 8.912 564.704 14.97V274.467C564.704 280.525 559.694 285.436 553.514 285.436Z" stroke="#2B3554" stroke-width="4" stroke-linecap="round" stroke-linejoin="round"/>
<path fill-rule="evenodd" clip-rule="evenodd" d="M553.514 285.436H160.943C154.763 285.436 149.753 280.525 149.753 274.467V14.97C149.753 8.912 154.763 4 160.943 4H553.514C559.694 4 564.704 8.912 564.704 14.97V274.467C564.704 280.525 559.694 285.436 553.514 285.436" fill="white"/>
<path fill-rule="evenodd" clip-rule="evenodd" d="M553.514 285.436H160.943C154.763 285.436 149.753 280.525 149.753 274.467V14.97C149.753 8.912 154.763 4 160.943 4H553.514C559.694 4 564.704 8.912 564.704 14.97V274.467C564.704 280.525 559.694 285.436 553.514 285.436" fill="#272727"/>
<path fill-rule="evenodd" clip-rule="evenodd" d="M149.753 246.625V274.467C149.753 280.525 154.763 285.437 160.943 285.437H553.514C559.694 285.437 564.704 280.525 564.704 274.467V246.625H149.753Z" fill="white"/>
<path fill-rule="evenodd" clip-rule="evenodd" d="M330.64 246.625H223.682C211.308 259.008 198.919 271.374 186.551 283.763C185.995 284.32 185.439 284.879 184.883 285.437H291.896C304.812 272.501 317.728 259.565 330.64 246.625" fill="#F3FCFF"/>
<path fill-rule="evenodd" clip-rule="evenodd" d="M400.26 254.877C403.004 252.127 405.748 249.376 408.492 246.625H376.253L337.441 285.436H369.77C379.933 275.25 390.098 265.065 400.26 254.877" fill="#F3FCFF"/>
<path fill-rule="evenodd" clip-rule="evenodd" d="M149.753 246.625V274.467C149.753 280.525 154.763 285.437 160.943 285.437H553.514C559.694 285.437 564.704 280.525 564.704 274.467V246.625H149.753Z" stroke="#2B3554" stroke-width="4" stroke-linecap="round" stroke-linejoin="round"/>
<mask id="mask0" mask-type="alpha" maskUnits="userSpaceOnUse" x="140" y="2" width="427" height="344">
<path fill-rule="evenodd" clip-rule="evenodd" d="M140 345.056H566.704V2H140V345.056Z" fill="white"/>
</mask>
<g mask="url(#mask0)">
<path fill-rule="evenodd" clip-rule="evenodd" d="M165.697 232.099H548.759V21.2148H165.697V232.099Z" fill="#00BCFB"/>
</g>
<path fill-rule="evenodd" clip-rule="evenodd" d="M165.698 38.3293H548.759V21.2163H165.698V38.3293Z" fill="white"/>
<path fill-rule="evenodd" clip-rule="evenodd" d="M165.698 38.3293H548.759V21.2163H165.698V38.3293Z" stroke="#2B3554" stroke-width="4"/>
<path fill-rule="evenodd" clip-rule="evenodd" d="M452.104 187.578H219.954C216.221 187.578 213.195 184.556 213.195 180.828V68.564C213.195 64.836 216.221 61.814 219.954 61.814H452.104C455.837 61.814 458.863 64.836 458.863 68.564V180.828C458.863 184.556 455.837 187.578 452.104 187.578" fill="white"/>
<path fill-rule="evenodd" clip-rule="evenodd" d="M452.104 187.578H219.954C216.221 187.578 213.195 184.556 213.195 180.828V68.564C213.195 64.836 216.221 61.814 219.954 61.814H452.104C455.837 61.814 458.863 64.836 458.863 68.564V180.828C458.863 184.556 455.837 187.578 452.104 187.578Z" stroke="#2B3554" stroke-width="4"/>
<path fill-rule="evenodd" clip-rule="evenodd" d="M213.195 73.7999V68.5649C213.195 64.8369 216.221 61.8149 219.954 61.8149H452.104C455.837 61.8149 458.863 64.8369 458.863 68.5649V73.7999H213.195Z" fill="#FFD46B"/>
<path fill-rule="evenodd" clip-rule="evenodd" d="M213.195 73.7999V68.5649C213.195 64.8369 216.221 61.8149 219.954 61.8149H452.104C455.837 61.8149 458.863 64.8369 458.863 68.5649V73.7999H213.195Z" stroke="#2B3554" stroke-width="4" stroke-linecap="round" stroke-linejoin="round"/>
<path fill-rule="evenodd" clip-rule="evenodd" d="M367.514 266.03C367.514 271.255 363.193 275.491 357.863 275.491C352.532 275.491 348.211 271.255 348.211 266.03C348.211 260.805 352.532 256.569 357.863 256.569C363.193 256.569 367.514 260.805 367.514 266.03" fill="#3F4853"/>
<path fill-rule="evenodd" clip-rule="evenodd" d="M425.406 231.222H291.578V215.46C291.578 212.134 294.275 209.437 297.601 209.437H419.295C422.67 209.437 425.406 212.174 425.406 215.549V231.222Z" fill="white"/>
<path fill-rule="evenodd" clip-rule="evenodd" d="M425.406 231.222H291.578V215.46C291.578 212.134 294.275 209.437 297.601 209.437H419.295C422.67 209.437 425.406 212.174 425.406 215.549V231.222Z" stroke="#2B3554" stroke-width="4" stroke-linecap="round" stroke-linejoin="round"/>
<path fill-rule="evenodd" clip-rule="evenodd" d="M165.697 232.099H548.759V21.2153H165.697V232.099Z" stroke="#2B3554" stroke-width="4" stroke-linecap="round" stroke-linejoin="round"/>
<path d="M191.237 29.772H206.943" stroke="#2B3554" stroke-width="4" stroke-linecap="round" stroke-linejoin="round"/>
<path d="M256.328 29.772H272.034" stroke="#2B3554" stroke-width="4" stroke-linecap="round" stroke-linejoin="round"/>
<path d="M216.153 29.772H229.332" stroke="#2B3554" stroke-width="4" stroke-linecap="round" stroke-linejoin="round"/>
<path d="M238.446 29.772H247.833" stroke="#2B3554" stroke-width="4" stroke-linecap="round" stroke-linejoin="round"/>
<path d="M173.724 29.772H183.111" stroke="#2B3554" stroke-width="4" stroke-linecap="round" stroke-linejoin="round"/>
<path d="M528.064 29.772H538.807" stroke="#2B3554" stroke-width="4" stroke-linecap="round" stroke-linejoin="round"/>
<path d="M507.842 29.772H518.585" stroke="#2B3554" stroke-width="4" stroke-linecap="round" stroke-linejoin="round"/>
<path d="M488.106 29.772H498.849" stroke="#2B3554" stroke-width="4" stroke-linecap="round" stroke-linejoin="round"/>
<path fill-rule="evenodd" clip-rule="evenodd" d="M497.749 185.789H391.176C385.498 185.789 380.895 181.186 380.895 175.508V128.848C380.895 123.172 385.496 118.571 391.171 118.571H497.744C503.422 118.571 508.025 123.174 508.025 128.852V175.513C508.025 181.188 503.424 185.789 497.749 185.789" fill="white"/>
<path fill-rule="evenodd" clip-rule="evenodd" d="M497.749 185.789H391.176C385.498 185.789 380.895 181.186 380.895 175.508V128.848C380.895 123.172 385.496 118.571 391.171 118.571H497.744C503.422 118.571 508.025 123.174 508.025 128.852V175.513C508.025 181.188 503.424 185.789 497.749 185.789Z" stroke="#2B3554" stroke-width="4"/>
<path fill-rule="evenodd" clip-rule="evenodd" d="M380.895 134.916V128.847C380.895 123.172 385.496 118.571 391.171 118.571H497.745C503.423 118.571 508.026 123.174 508.026 128.852V134.921L380.895 134.916Z" fill="white"/>
<path fill-rule="evenodd" clip-rule="evenodd" d="M380.895 134.916V128.847C380.895 123.172 385.496 118.571 391.171 118.571H497.745C503.423 118.571 508.026 123.174 508.026 128.852V134.921L380.895 134.916Z" stroke="#2B3554" stroke-width="4"/>
<path fill-rule="evenodd" clip-rule="evenodd" d="M402.229 173.637H490.321V145.026H402.229V173.637Z" fill="#FFE9D9"/>
<path fill-rule="evenodd" clip-rule="evenodd" d="M402.229 173.637H490.321V145.026H402.229V173.637Z" stroke="#2B3554" stroke-width="4" stroke-linecap="round" stroke-linejoin="round"/>
<path fill-rule="evenodd" clip-rule="evenodd" d="M361.187 12.1975C361.187 13.9975 359.699 15.4565 357.863 15.4565C356.027 15.4565 354.539 13.9975 354.539 12.1975C354.539 10.3975 356.027 8.93848 357.863 8.93848C359.699 8.93848 361.187 10.3975 361.187 12.1975" fill="#3F4853"/>
<path fill-rule="evenodd" clip-rule="evenodd" d="M469.605 194.981H241.389C237.211 194.981 233.825 191.599 233.825 187.427V61.785C233.825 57.613 237.211 54.231 241.389 54.231H469.605C473.783 54.231 477.169 57.613 477.169 61.785V187.427C477.169 191.599 473.783 194.981 469.605 194.981" fill="white"/>
<path fill-rule="evenodd" clip-rule="evenodd" d="M469.605 194.981H241.389C237.211 194.981 233.825 191.599 233.825 187.427V61.785C233.825 57.613 237.211 54.231 241.389 54.231H469.605C473.783 54.231 477.169 57.613 477.169 61.785V187.427C477.169 191.599 473.783 194.981 469.605 194.981Z" stroke="#2B3554" stroke-width="4"/>
<path fill-rule="evenodd" clip-rule="evenodd" d="M476.793 67.5954V61.7854C476.793 57.6134 473.411 54.2314 469.239 54.2314H241.378C237.206 54.2314 233.824 57.6134 233.824 61.7854V67.5954H476.793Z" fill="#FFD46B"/>
<path fill-rule="evenodd" clip-rule="evenodd" d="M476.793 67.5954V61.7854C476.793 57.6134 473.411 54.2314 469.239 54.2314H241.378C237.206 54.2314 233.824 57.6134 233.824 61.7854V67.5954H476.793Z" stroke="#2B3554" stroke-width="4" stroke-linecap="round" stroke-linejoin="round"/>
<path d="M317.82 60.9131H405.699" stroke="#2B3554" stroke-width="4" stroke-linecap="round" stroke-linejoin="round"/>
<path fill-rule="evenodd" clip-rule="evenodd" d="M245.164 60.8026C245.164 62.1326 244.064 63.2116 242.706 63.2116C241.35 63.2116 240.249 62.1326 240.249 60.8026C240.249 59.4716 241.35 58.3936 242.706 58.3936C244.064 58.3936 245.164 59.4716 245.164 60.8026" fill="#3F4853"/>
<path fill-rule="evenodd" clip-rule="evenodd" d="M252.766 60.8026C252.766 62.1326 251.666 63.2116 250.308 63.2116C248.952 63.2116 247.851 62.1326 247.851 60.8026C247.851 59.4716 248.952 58.3936 250.308 58.3936C251.666 58.3936 252.766 59.4716 252.766 60.8026" fill="#3F4853"/>
<path fill-rule="evenodd" clip-rule="evenodd" d="M260.201 60.8026C260.201 62.1326 259.101 63.2116 257.743 63.2116C256.387 63.2116 255.286 62.1326 255.286 60.8026C255.286 59.4716 256.387 58.3936 257.743 58.3936C259.101 58.3936 260.201 59.4716 260.201 60.8026" fill="#3F4853"/>
<path fill-rule="evenodd" clip-rule="evenodd" d="M351.886 149.706H259.219C255.894 149.706 253.174 146.986 253.174 143.662V89.8668C253.174 86.5388 255.871 83.8418 259.199 83.8418H351.886C355.214 83.8418 357.911 86.5388 357.911 89.8668V143.681C357.911 147.009 355.214 149.706 351.886 149.706" fill="#CEECF4"/>
<path fill-rule="evenodd" clip-rule="evenodd" d="M350.747 146.35H257.194C254.974 146.35 253.173 144.55 253.173 142.329V87.5102C253.173 85.2902 254.974 83.4902 257.194 83.4902H350.747C352.968 83.4902 354.768 85.2902 354.768 87.5102V142.329C354.768 144.55 352.968 146.35 350.747 146.35" fill="white"/>
<path fill-rule="evenodd" clip-rule="evenodd" d="M350.747 146.35H257.194C254.974 146.35 253.173 144.55 253.173 142.329V87.5102C253.173 85.2902 254.974 83.4902 257.194 83.4902H350.747C352.968 83.4902 354.768 85.2902 354.768 87.5102V142.329C354.768 144.55 352.968 146.35 350.747 146.35Z" stroke="#2B3554" stroke-width="4" stroke-linecap="round" stroke-linejoin="round"/>
<path fill-rule="evenodd" clip-rule="evenodd" d="M293.62 175.223C292.06 175.223 290.797 173.959 290.797 172.4V158.466C290.797 156.923 292.047 155.673 293.59 155.673H317.518C319.061 155.673 320.312 156.923 320.312 158.466V172.4C320.312 173.959 319.048 175.223 317.489 175.223H293.62Z" fill="#CEECF4"/>
<path fill-rule="evenodd" clip-rule="evenodd" d="M331.219 175.223C329.66 175.223 328.396 173.959 328.396 172.4V158.466C328.396 156.923 329.647 155.673 331.189 155.673H355.118C356.661 155.673 357.911 156.923 357.911 158.466V172.4C357.911 173.959 356.647 175.223 355.088 175.223H331.219Z" fill="#CEECF4"/>
<path fill-rule="evenodd" clip-rule="evenodd" d="M255.997 175.223C254.438 175.223 253.174 173.959 253.174 172.4V158.466C253.174 156.923 254.425 155.673 255.967 155.673H279.896C281.439 155.673 282.689 156.923 282.689 158.466V172.4C282.689 173.959 281.425 175.223 279.866 175.223H255.997Z" fill="#CEECF4"/>
<path fill-rule="evenodd" clip-rule="evenodd" d="M278.426 171.829H254.215C253.64 171.829 253.174 171.363 253.174 170.788V156.601C253.174 156.026 253.64 155.56 254.215 155.56H278.426C279.001 155.56 279.467 156.026 279.467 156.601V170.788C279.467 171.363 279.001 171.829 278.426 171.829" fill="white"/>
<path fill-rule="evenodd" clip-rule="evenodd" d="M278.426 171.829H254.215C253.64 171.829 253.174 171.363 253.174 170.788V156.601C253.174 156.026 253.64 155.56 254.215 155.56H278.426C279.001 155.56 279.467 156.026 279.467 156.601V170.788C279.467 171.363 279.001 171.829 278.426 171.829Z" stroke="#2B3554" stroke-width="4" stroke-linecap="round" stroke-linejoin="round"/>
<path fill-rule="evenodd" clip-rule="evenodd" d="M316.049 172.258H291.838C291.263 172.258 290.797 171.792 290.797 171.217V157.03C290.797 156.456 291.263 155.99 291.838 155.99H316.049C316.624 155.99 317.09 156.456 317.09 157.03V171.217C317.09 171.792 316.624 172.258 316.049 172.258" fill="white"/>
<path fill-rule="evenodd" clip-rule="evenodd" d="M316.049 172.258H291.838C291.263 172.258 290.797 171.792 290.797 171.217V157.03C290.797 156.456 291.263 155.99 291.838 155.99H316.049C316.624 155.99 317.09 156.456 317.09 157.03V171.217C317.09 171.792 316.624 172.258 316.049 172.258Z" stroke="#2B3554" stroke-width="4" stroke-linecap="round" stroke-linejoin="round"/>
<path fill-rule="evenodd" clip-rule="evenodd" d="M353.647 171.829H329.436C328.861 171.829 328.395 171.363 328.395 170.788V156.601C328.395 156.026 328.861 155.56 329.436 155.56H353.647C354.222 155.56 354.688 156.026 354.688 156.601V170.788C354.688 171.363 354.222 171.829 353.647 171.829" fill="white"/>
<path fill-rule="evenodd" clip-rule="evenodd" d="M353.647 171.829H329.436C328.861 171.829 328.395 171.363 328.395 170.788V156.601C328.395 156.026 328.861 155.56 329.436 155.56H353.647C354.222 155.56 354.688 156.026 354.688 156.601V170.788C354.688 171.363 354.222 171.829 353.647 171.829Z" stroke="#2B3554" stroke-width="4" stroke-linecap="round" stroke-linejoin="round"/>
<path d="M381.231 95.2402H446.017" stroke="#2B3554" stroke-width="4" stroke-linecap="round" stroke-linejoin="round"/>
<path d="M380.812 108.731C405.699 108.821 430.586 108.811 455.473 108.688" stroke="#2B3554" stroke-width="4" stroke-linecap="round" stroke-linejoin="round"/>
<path d="M380.841 119.056H439.288" stroke="#2B3554" stroke-width="4" stroke-linecap="round" stroke-linejoin="round"/>
<path d="M381.231 130.003H446.017" stroke="#2B3554" stroke-width="4" stroke-linecap="round" stroke-linejoin="round"/>
<path d="M380.812 140.351C405.699 140.441 405.7 140.431 430.586 140.308" stroke="#2B3554" stroke-width="4" stroke-linecap="round" stroke-linejoin="round"/>
<path fill-rule="evenodd" clip-rule="evenodd" d="M442.358 171.366H385.573C382.152 171.366 379.379 168.473 379.379 164.905V164.774C379.379 161.205 382.152 158.313 385.573 158.313H442.358C445.779 158.313 448.553 161.205 448.553 164.774V164.905C448.553 168.473 445.779 171.366 442.358 171.366" fill="#CEECF4"/>
<path fill-rule="evenodd" clip-rule="evenodd" d="M438.871 167.401H384.54C381.454 167.401 378.952 164.791 378.952 161.571V161.454C378.952 158.234 381.454 155.624 384.54 155.624H438.871C441.957 155.624 444.46 158.234 444.46 161.454V161.571C444.46 164.791 441.957 167.401 438.871 167.401" fill="#00AC8F"/>
<path fill-rule="evenodd" clip-rule="evenodd" d="M438.871 167.401H384.54C381.454 167.401 378.952 164.791 378.952 161.571V161.454C378.952 158.234 381.454 155.624 384.54 155.624H438.871C441.957 155.624 444.46 158.234 444.46 161.454V161.571C444.46 164.791 441.957 167.401 438.871 167.401Z" stroke="#2B3554" stroke-width="4" stroke-linecap="round" stroke-linejoin="round"/>
<path fill-rule="evenodd" clip-rule="evenodd" d="M305.262 224.799H299.803C298.842 224.799 298.062 224.02 298.062 223.059V217.599C298.062 216.638 298.842 215.86 299.803 215.86H305.262C306.223 215.86 307.002 216.638 307.002 217.599V223.059C307.002 224.02 306.223 224.799 305.262 224.799" fill="#FFD46B"/>
<path fill-rule="evenodd" clip-rule="evenodd" d="M305.262 224.799H299.803C298.842 224.799 298.062 224.02 298.062 223.059V217.599C298.062 216.638 298.842 215.86 299.803 215.86H305.262C306.223 215.86 307.002 216.638 307.002 217.599V223.059C307.002 224.02 306.223 224.799 305.262 224.799Z" stroke="#2B3554" stroke-width="4" stroke-linecap="round" stroke-linejoin="round"/>
<path fill-rule="evenodd" clip-rule="evenodd" d="M320.921 224.799H315.461C314.5 224.799 313.721 224.02 313.721 223.059V217.599C313.721 216.638 314.5 215.86 315.461 215.86H320.921C321.882 215.86 322.661 216.638 322.661 217.599V223.059C322.661 224.02 321.882 224.799 320.921 224.799" fill="#00AC8F"/>
<path fill-rule="evenodd" clip-rule="evenodd" d="M320.921 224.799H315.461C314.5 224.799 313.721 224.02 313.721 223.059V217.599C313.721 216.638 314.5 215.86 315.461 215.86H320.921C321.882 215.86 322.661 216.638 322.661 217.599V223.059C322.661 224.02 321.882 224.799 320.921 224.799Z" stroke="#2B3554" stroke-width="2.528" stroke-linecap="round" stroke-linejoin="round"/>
<path fill-rule="evenodd" clip-rule="evenodd" d="M336.083 224.799H330.623C329.662 224.799 328.883 224.02 328.883 223.059V217.599C328.883 216.638 329.662 215.86 330.623 215.86H336.083C337.044 215.86 337.823 216.638 337.823 217.599V223.059C337.823 224.02 337.044 224.799 336.083 224.799" fill="#FF6161"/>
<path fill-rule="evenodd" clip-rule="evenodd" d="M336.083 224.799H330.623C329.662 224.799 328.883 224.02 328.883 223.059V217.599C328.883 216.638 329.662 215.86 330.623 215.86H336.083C337.044 215.86 337.823 216.638 337.823 217.599V223.059C337.823 224.02 337.044 224.799 336.083 224.799Z" stroke="#2B3554" stroke-width="2.528" stroke-linecap="round" stroke-linejoin="round"/>
<path fill-rule="evenodd" clip-rule="evenodd" d="M352.294 224.799H346.834C345.873 224.799 345.094 224.02 345.094 223.059V217.599C345.094 216.638 345.873 215.86 346.834 215.86H352.294C353.255 215.86 354.034 216.638 354.034 217.599V223.059C354.034 224.02 353.255 224.799 352.294 224.799" fill="#EFEFEF"/>
<path fill-rule="evenodd" clip-rule="evenodd" d="M352.294 224.799H346.834C345.873 224.799 345.094 224.02 345.094 223.059V217.599C345.094 216.638 345.873 215.86 346.834 215.86H352.294C353.255 215.86 354.034 216.638 354.034 217.599V223.059C354.034 224.02 353.255 224.799 352.294 224.799Z" stroke="#2B3554" stroke-width="2.528" stroke-linecap="round" stroke-linejoin="round"/>
<path fill-rule="evenodd" clip-rule="evenodd" d="M367.952 224.799H362.493C361.532 224.799 360.753 224.02 360.753 223.059V217.599C360.753 216.638 361.532 215.86 362.493 215.86H367.952C368.913 215.86 369.692 216.638 369.692 217.599V223.059C369.692 224.02 368.913 224.799 367.952 224.799" fill="#FF3F51"/>
<path fill-rule="evenodd" clip-rule="evenodd" d="M367.952 224.799H362.493C361.532 224.799 360.753 224.02 360.753 223.059V217.599C360.753 216.638 361.532 215.86 362.493 215.86H367.952C368.913 215.86 369.692 216.638 369.692 217.599V223.059C369.692 224.02 368.913 224.799 367.952 224.799Z" stroke="#2B3554" stroke-width="2.528" stroke-linecap="round" stroke-linejoin="round"/>
<path fill-rule="evenodd" clip-rule="evenodd" d="M384.598 224.799H379.139C378.178 224.799 377.399 224.02 377.399 223.059V217.599C377.399 216.638 378.178 215.86 379.139 215.86H384.598C385.559 215.86 386.338 216.638 386.338 217.599V223.059C386.338 224.02 385.559 224.799 384.598 224.799" fill="#FF6161"/>
<path fill-rule="evenodd" clip-rule="evenodd" d="M384.598 224.799H379.139C378.178 224.799 377.399 224.02 377.399 223.059V217.599C377.399 216.638 378.178 215.86 379.139 215.86H384.598C385.559 215.86 386.338 216.638 386.338 217.599V223.059C386.338 224.02 385.559 224.799 384.598 224.799Z" stroke="#2B3554" stroke-width="2.528" stroke-linecap="round" stroke-linejoin="round"/>
<path fill-rule="evenodd" clip-rule="evenodd" d="M400.809 224.799H395.349C394.388 224.799 393.609 224.02 393.609 223.059V217.599C393.609 216.638 394.388 215.86 395.349 215.86H400.809C401.77 215.86 402.549 216.638 402.549 217.599V223.059C402.549 224.02 401.77 224.799 400.809 224.799" fill="#FFD46B"/>
<path fill-rule="evenodd" clip-rule="evenodd" d="M400.809 224.799H395.349C394.388 224.799 393.609 224.02 393.609 223.059V217.599C393.609 216.638 394.388 215.86 395.349 215.86H400.809C401.77 215.86 402.549 216.638 402.549 217.599V223.059C402.549 224.02 401.77 224.799 400.809 224.799Z" stroke="#2B3554" stroke-width="4" stroke-linecap="round" stroke-linejoin="round"/>
<path fill-rule="evenodd" clip-rule="evenodd" d="M416.468 224.799H411.009C410.048 224.799 409.268 224.02 409.268 223.059V217.599C409.268 216.638 410.048 215.86 411.009 215.86H416.468C417.429 215.86 418.208 216.638 418.208 217.599V223.059C418.208 224.02 417.429 224.799 416.468 224.799" fill="#FF6161"/>
<path fill-rule="evenodd" clip-rule="evenodd" d="M416.468 224.799H411.009C410.048 224.799 409.268 224.02 409.268 223.059V217.599C409.268 216.638 410.048 215.86 411.009 215.86H416.468C417.429 215.86 418.208 216.638 418.208 217.599V223.059C418.208 224.02 417.429 224.799 416.468 224.799Z" stroke="#2B3554" stroke-width="2.528" stroke-linecap="round" stroke-linejoin="round"/>
<path fill-rule="evenodd" clip-rule="evenodd" d="M372.433 216.62C372.433 218.451 370.949 219.936 369.117 219.936C367.286 219.936 365.801 218.451 365.801 216.62C365.801 214.788 367.286 213.304 369.117 213.304C370.949 213.304 372.433 214.788 372.433 216.62" fill="#FFD46B"/>
<path fill-rule="evenodd" clip-rule="evenodd" d="M372.433 216.62C372.433 218.451 370.949 219.936 369.117 219.936C367.286 219.936 365.801 218.451 365.801 216.62C365.801 214.788 367.286 213.304 369.117 213.304C370.949 213.304 372.433 214.788 372.433 216.62Z" stroke="#2B3554" stroke-width="4" stroke-linecap="round" stroke-linejoin="round"/>
<path d="M253.174 136.743H354.768" stroke="#2B3554" stroke-width="4" stroke-linecap="round" stroke-linejoin="round"/>
<path d="M253.174 111.536L270.168 94.542L312.326 136.743" stroke="#2B3554" stroke-width="4" stroke-linecap="round" stroke-linejoin="round"/>
<path d="M297.59 121.992L307.966 114.629L332.673 136.743" stroke="#2B3554" stroke-width="4" stroke-linecap="round" stroke-linejoin="round"/>
<path fill-rule="evenodd" clip-rule="evenodd" d="M343.61 102.463C343.61 107.631 339.42 111.821 334.251 111.821C329.083 111.821 324.893 107.631 324.893 102.463C324.893 97.294 329.083 93.104 334.251 93.104C339.42 93.104 343.61 97.294 343.61 102.463" fill="white"/>
<path fill-rule="evenodd" clip-rule="evenodd" d="M343.61 102.463C343.61 107.631 339.42 111.821 334.251 111.821C329.083 111.821 324.893 107.631 324.893 102.463C324.893 97.294 329.083 93.104 334.251 93.104C339.42 93.104 343.61 97.294 343.61 102.463Z" stroke="#2B3554" stroke-width="4" stroke-linecap="round" stroke-linejoin="round"/>
<path d="M271.085 58.2676L267.776 60.8886L271.085 63.2796" stroke="#2B3554" stroke-width="2.528" stroke-linecap="round" stroke-linejoin="round"/>
<path d="M275.51 58.2676L278.819 60.8886L275.51 63.2796" stroke="#2B3554" stroke-width="2.528" stroke-linecap="round" stroke-linejoin="round"/>
<path d="M190.159 343.056H526.825" stroke="#2B3554" stroke-width="4" stroke-linecap="round" stroke-linejoin="round"/>
<path fill-rule="evenodd" clip-rule="evenodd" d="M553.514 285.436H160.943C154.763 285.436 149.753 280.525 149.753 274.467V14.97C149.753 8.912 154.763 4 160.943 4H553.514C559.694 4 564.704 8.912 564.704 14.97V274.467C564.704 280.525 559.694 285.436 553.514 285.436Z" stroke="#2B3554" stroke-width="4" stroke-linecap="round" stroke-linejoin="round"/>
</svg>
