<svg width="36" height="40" viewBox="0 0 36 40" fill="none" xmlns="http://www.w3.org/2000/svg">
<path d="M29.2 39.1L19 39V37L29.2 37.1C30.2 37.1 31 36.3 31 35.3V32H33V35.3C33 37.4 31.3 39.1 29.2 39.1Z" fill="#90A4AE"/>
<path d="M18 0C8.1 0 0 8.1 0 18V29H4V18C4 10.3 10.3 4 18 4C25.7 4 32 10.3 32 18V29H36V18C36 8.1 27.9 0 18 0Z" fill="#0097A7"/>
<path fill-rule="evenodd" clip-rule="evenodd" d="M4 34H8V22H4C1.8 22 0 23.8 0 26V30C0 32.2 1.8 34 4 34ZM32 34H28V22H32C34.2 22 36 23.8 36 26V30C36 32.2 34.2 34 32 34ZM20 36C21.1 36 22 36.9 22 38C22 39.1 21.1 40 20 40H17C15.9 40 15 39.1 15 38C15 36.9 15.9 36 17 36H20Z" fill="#37474F"/>
</svg>
