<svg width="36" height="36" viewBox="0 0 36 36" fill="none" xmlns="http://www.w3.org/2000/svg">
<path d="M24 4L12 0L0 4V36L12 32L24 36L36 32V0L24 4Z" fill="#FFECB3"/>
<path d="M12 0V32L24 36V4L12 0Z" fill="#FFE082"/>
<path d="M24 9C20.133 9 17 12.293 17 16.351C17 20.409 24 30 24 30C24 30 31 20.408 31 16.351C31 12.294 27.867 9 24 9Z" fill="#F44336"/>
<path d="M24 19C25.6569 19 27 17.6569 27 16C27 14.3431 25.6569 13 24 13C22.3431 13 21 14.3431 21 16C21 17.6569 22.3431 19 24 19Z" fill="#FFEBEE"/>
</svg>
